<mxfile host="app.diagrams.net" modified="2023-09-04T21:20:42.568Z" agent="Mozilla/5.0 (Windows NT 10.0; Win64; x64) AppleWebKit/537.36 (KHTML, like Gecko) Chrome/116.0.0.0 Safari/537.36" etag="0e5gJ3-u4ZnI6O0sJSYL" version="21.7.2" type="github">
  <diagram name="Sayfa -1" id="xtpe9JXe6I9Ki-Vc6pJg">
    <mxGraphModel dx="1290" dy="1794" grid="1" gridSize="10" guides="1" tooltips="1" connect="1" arrows="1" fold="1" page="1" pageScale="1" pageWidth="827" pageHeight="1169" math="0" shadow="0">
      <root>
        <mxCell id="0" />
        <mxCell id="1" parent="0" />
        <mxCell id="WyH_3Dmdl5RkrQWv5j7I-30" style="edgeStyle=orthogonalEdgeStyle;rounded=0;orthogonalLoop=1;jettySize=auto;html=1;exitX=0;exitY=0.75;exitDx=0;exitDy=0;entryX=1.013;entryY=0.609;entryDx=0;entryDy=0;entryPerimeter=0;fontFamily=Helvetica;fontSize=12;fontColor=default;" parent="1" source="WyH_3Dmdl5RkrQWv5j7I-14" target="WyH_3Dmdl5RkrQWv5j7I-23" edge="1">
          <mxGeometry relative="1" as="geometry" />
        </mxCell>
        <mxCell id="WyH_3Dmdl5RkrQWv5j7I-14" value="Login&lt;br&gt;&lt;br&gt;&lt;br&gt;email&lt;br&gt;pasword" style="rounded=0;whiteSpace=wrap;html=1;fontFamily=Helvetica;fontSize=12;fontColor=default;fillColor=none;gradientColor=none;" parent="1" vertex="1">
          <mxGeometry x="440" y="102.5" width="90" height="85" as="geometry" />
        </mxCell>
        <mxCell id="WyH_3Dmdl5RkrQWv5j7I-29" style="edgeStyle=orthogonalEdgeStyle;rounded=0;orthogonalLoop=1;jettySize=auto;html=1;exitX=1;exitY=0.5;exitDx=0;exitDy=0;entryX=0;entryY=0.5;entryDx=0;entryDy=0;fontFamily=Helvetica;fontSize=12;fontColor=default;" parent="1" source="WyH_3Dmdl5RkrQWv5j7I-23" target="WyH_3Dmdl5RkrQWv5j7I-14" edge="1">
          <mxGeometry relative="1" as="geometry" />
        </mxCell>
        <mxCell id="WyH_3Dmdl5RkrQWv5j7I-23" value="User&lt;br&gt;&lt;br&gt;id&lt;br&gt;name&lt;br&gt;surname&lt;br&gt;email&lt;br&gt;pasword" style="shape=datastore;whiteSpace=wrap;html=1;fontFamily=Helvetica;fontSize=12;fontColor=default;fillColor=none;gradientColor=none;" parent="1" vertex="1">
          <mxGeometry x="190" y="50" width="210" height="190" as="geometry" />
        </mxCell>
        <mxCell id="WyH_3Dmdl5RkrQWv5j7I-27" value="Registration" style="whiteSpace=wrap;html=1;aspect=fixed;fontFamily=Helvetica;fontSize=12;fontColor=default;fillColor=none;gradientColor=none;" parent="1" vertex="1">
          <mxGeometry x="255" y="-10" width="80" height="80" as="geometry" />
        </mxCell>
        <mxCell id="WyH_3Dmdl5RkrQWv5j7I-32" value="From to&lt;br&gt;&lt;br&gt;&lt;br&gt;Country list" style="shape=datastore;whiteSpace=wrap;html=1;fontFamily=Helvetica;fontSize=12;fontColor=default;fillColor=none;gradientColor=none;" parent="1" vertex="1">
          <mxGeometry x="570" y="20" width="200" height="200" as="geometry" />
        </mxCell>
        <mxCell id="B_GzQLZwMQorelmIIEv2-1" value="Econom and business class" style="whiteSpace=wrap;html=1;aspect=fixed;fontFamily=Helvetica;fontSize=12;fontColor=default;fillColor=none;gradientColor=none;" vertex="1" parent="1">
          <mxGeometry x="810" y="80" width="80" height="80" as="geometry" />
        </mxCell>
      </root>
    </mxGraphModel>
  </diagram>
</mxfile>
